<svg width="343" height="145" viewBox="0 0 343 145" fill="none" xmlns="http://www.w3.org/2000/svg">
<path d="M19.4235 101.613C37.8759 106.113 79.5394 114.939 98.5745 114.242C122.368 113.371 156.36 101.613 183.552 101.613C210.745 101.613 320.488 117.29 337.484 117.29C350.424 117.29 353.835 115.449 353.994 114.396V114.242C354.002 114.291 354.002 114.342 353.994 114.396V144.726L2.42794 153L0 99C3.72285 99.2243 12.8195 100.061 19.4235 101.613Z" fill="#072F68"/>
<path d="M238.983 22.177C239.154 20.3692 239.557 18.3693 240.993 16.9511C241.571 16.3805 242.29 15.8812 243.086 15.6151C244.076 15.2831 245.142 15.2941 246.162 15.5218C247.251 15.766 248.248 16.2159 249.192 16.7206C249.433 16.8496 249.68 16.9785 249.911 17.1239C249.944 17.1431 250.215 17.3571 250.136 17.2446C250.132 17.2391 250.139 17.1897 250.146 17.1788C250.096 17.2693 250.017 17.3598 249.944 17.4394C249.816 17.5793 249.618 17.7439 249.443 17.8755C248.096 18.8714 246.089 18.8851 244.719 18.0072C243.917 17.4915 243.468 16.7919 243.27 15.9552C243.066 15.0993 243.049 14.1337 243.264 13.2778C243.488 12.3945 243.997 11.6757 244.818 11.0859C245.554 10.5565 246.479 10.1916 247.399 9.94197C249.558 9.35491 251.898 9.37411 254.044 9.99684C255.014 10.2767 255.978 10.6991 256.654 11.3548C256.773 11.4672 256.922 11.6044 256.985 11.7443C257.087 11.972 256.988 11.7443 257.027 11.9391C257.027 11.9199 257.031 11.9034 257.031 11.8842C256.994 11.9775 256.991 11.9885 257.021 11.9144C256.862 12.0269 256.73 12.1448 256.493 12.1558C256.242 12.1668 256.602 12.2079 256.324 12.1448C256.179 12.1119 256.107 12.09 255.998 12.0406C255.777 11.9418 255.608 11.8156 255.427 11.6565C255.031 11.3081 254.73 10.8802 254.469 10.4522C253.941 9.58534 253.644 8.60325 253.555 7.63487C253.354 5.39635 254.159 3.20995 255.364 1.23205C255.605 0.834271 255.489 0.34048 255.007 0.107301C254.568 -0.106675 253.895 0.00305611 253.654 0.403575C252.321 2.59546 251.38 5.03698 251.565 7.5224C251.657 8.74041 251.994 9.91728 252.608 11.0256C253.152 12.0104 253.988 13.0858 255.215 13.5549C256.443 14.0212 258.09 13.7771 258.757 12.7099C259.506 11.5111 258.384 10.3123 257.278 9.59357C255.027 8.1314 251.872 7.65407 249.086 7.95583C246.403 8.24662 243.429 9.25889 242.043 11.3136C241.323 12.3807 241.112 13.6372 241.161 14.8442C241.207 16.0266 241.448 17.272 242.303 18.2514C243.94 20.1196 246.809 20.7889 249.36 19.8507C249.957 19.6312 250.512 19.313 250.981 18.9372C251.449 18.5614 251.941 18.0703 252.083 17.5271C252.423 16.2104 250.512 15.4258 249.383 14.8936C246.888 13.7167 243.864 13.179 241.306 14.5479C238.917 15.8208 237.709 18.0484 237.267 20.3088C237.144 20.9288 237.062 21.5515 237.002 22.177C236.96 22.6214 237.488 23 237.993 23C238.564 23 238.94 22.6214 238.983 22.177Z" fill="white" fill-opacity="0.05"/>
<path d="M277.605 61.2245C278.794 58.1304 280.464 54.7924 283.564 52.8829C284.812 52.1146 286.26 51.5276 287.718 51.3788C289.534 51.1922 291.305 51.6358 292.89 52.44C294.583 53.3006 296.019 54.4843 297.34 55.743C297.677 56.0645 298.025 56.3886 298.337 56.7349C298.383 56.7816 298.727 57.2636 298.651 57.0353C298.648 57.0244 298.684 56.9407 298.701 56.9241C298.573 57.0628 298.396 57.1896 298.235 57.2999C297.951 57.4934 297.538 57.7025 297.181 57.8632C294.44 59.0691 291.089 58.2944 289.246 56.2136C288.167 54.9922 287.768 53.5898 287.856 52.0474C287.943 50.4687 288.398 48.773 289.183 47.3611C289.998 45.9053 291.204 44.8503 292.868 44.1457C294.358 43.5125 296.081 43.2421 297.74 43.1719C301.629 43.0041 305.519 43.9691 308.783 45.9124C310.26 46.7881 311.655 47.9107 312.454 49.3269C312.596 49.571 312.775 49.87 312.81 50.1397C312.867 50.5787 312.815 50.141 312.784 50.4975C312.794 50.4639 312.807 50.4364 312.817 50.4028C312.71 50.5515 312.699 50.5694 312.785 50.4517C312.465 50.5854 312.186 50.7392 311.785 50.6638C311.361 50.5831 311.94 50.7983 311.51 50.5776C311.284 50.4622 311.174 50.3949 311.017 50.2652C310.698 50.0044 310.481 49.7167 310.258 49.3661C309.772 48.599 309.485 47.7308 309.265 46.8784C308.818 45.1518 308.813 43.3156 309.148 41.5862C309.931 37.5902 312.365 34.0861 315.36 31.1057C315.96 30.5058 316.014 29.596 315.328 28.9963C314.703 28.4473 313.527 28.3712 312.925 28.976C309.609 32.2795 306.822 36.176 305.888 40.5973C305.434 42.7647 305.407 44.9574 305.877 47.1404C306.292 49.08 307.146 51.2935 308.958 52.6028C310.771 53.9073 313.637 54.1357 315.281 52.5343C317.128 50.7355 315.857 48.1917 314.374 46.4944C311.353 43.0407 306.334 40.9498 301.542 40.3689C296.926 39.8095 291.465 40.3966 288.129 43.4391C286.397 45.0195 285.417 47.1332 284.897 49.2644C284.383 51.3511 284.163 53.6256 285.098 55.6791C286.893 59.5986 291.337 61.9112 296.057 61.2855C297.162 61.1393 298.245 60.8034 299.214 60.3325C300.182 59.8616 301.247 59.1984 301.755 58.3047C302.979 56.1366 300.187 54.0035 298.572 52.6232C295.002 49.5714 290.233 47.4275 285.287 48.8039C280.67 50.0795 277.544 53.4953 275.678 57.2734C275.165 58.3094 274.717 59.3658 274.305 60.4363C274.012 61.1966 274.702 62.0691 275.544 62.2701C276.495 62.4973 277.311 61.9849 277.605 61.2245Z" fill="white" fill-opacity="0.05"/>
<path d="M57.1762 32.4633C59.739 33.2443 62.5104 34.3437 64.1319 36.3963C64.7842 37.222 65.291 38.1816 65.4379 39.1489C65.6218 40.3532 65.2871 41.5295 64.6529 42.5838C63.9741 43.7094 63.0254 44.6655 62.0132 45.5452C61.7547 45.7697 61.4943 46.0015 61.2149 46.2097C61.1773 46.24 60.7869 46.4695 60.9733 46.4186C60.9822 46.4168 61.0516 46.4402 61.0655 46.4511C60.9494 46.3667 60.8422 46.2495 60.7489 46.1431C60.5851 45.9549 60.4063 45.6819 60.2682 45.4453C59.2309 43.6294 59.8112 41.404 61.4903 40.1751C62.4759 39.456 63.6217 39.1879 64.8908 39.2422C66.1896 39.2956 67.5909 39.593 68.7643 40.1102C69.9745 40.6473 70.8618 41.4448 71.4689 42.5472C72.0144 43.5349 72.2656 44.6769 72.3512 45.7777C72.5546 48.3585 71.827 50.9421 70.2849 53.1129C69.5901 54.0953 68.691 55.0238 67.5406 55.5583C67.3424 55.6531 67.0997 55.7726 66.8786 55.7963C66.5188 55.8351 66.8776 55.7999 66.5841 55.7801C66.6119 55.7864 66.6347 55.7954 66.6625 55.8017C66.5385 55.731 66.5236 55.7238 66.6218 55.7809C66.5065 55.5688 66.3754 55.3841 66.4306 55.1175C66.4898 54.8363 66.3227 55.221 66.4969 54.9348C66.5879 54.7848 66.6413 54.7116 66.7453 54.6072C66.9543 54.3948 67.1871 54.2497 67.4714 54.1008C68.0937 53.7764 68.8023 53.5839 69.4991 53.4352C70.9106 53.1341 72.4195 53.1264 73.8465 53.3444C77.1436 53.8533 80.0643 55.4593 82.5641 57.4392C83.0672 57.8359 83.8158 57.8694 84.2971 57.4124C84.7378 56.9965 84.7805 56.2154 84.2734 55.8178C81.5027 53.6256 78.2535 51.7864 74.6043 51.1785C72.8154 50.8826 71.0129 50.8705 69.2267 51.1876C67.6398 51.4684 65.8351 52.041 64.7896 53.2465C63.748 54.4529 63.6085 56.3555 64.9522 57.4422C66.4617 58.6633 68.5308 57.8132 69.9007 56.8245C72.6882 54.8112 74.3221 51.4751 74.7188 48.2935C75.1008 45.2287 74.5264 41.6066 71.9698 39.4007C70.6419 38.2556 68.8883 37.6111 67.1281 37.2713C65.4045 36.9359 63.5315 36.7954 61.8597 37.4214C58.6687 38.6225 56.8431 41.578 57.4367 44.7083C57.5754 45.4412 57.8698 46.1589 58.2731 46.8005C58.6763 47.442 59.2393 48.1468 59.9823 48.4814C61.7847 49.2881 63.4907 47.4296 64.5979 46.3543C67.0459 43.9775 68.7275 40.8073 67.513 37.5289C66.3871 34.4681 63.5273 32.403 60.3909 31.1746C59.5309 30.8368 58.6551 30.5419 57.7684 30.2717C57.1386 30.0789 56.4333 30.5396 56.2823 31.0985C56.1115 31.7304 56.5464 32.2706 57.1762 32.4633Z" fill="white" fill-opacity="0.05"/>
<path d="M220.705 85.1133C220.982 84.1688 222.313 84.1503 222.616 85.0868L223.639 88.2471C223.737 88.5526 223.977 88.792 224.282 88.8908L227.443 89.9131C228.379 90.216 228.361 91.5472 227.416 91.8241L224.39 92.7113C224.063 92.8072 223.807 93.0628 223.711 93.3896L222.824 96.4161C222.547 97.3606 221.216 97.379 220.913 96.4425L219.891 93.2822C219.792 92.9767 219.553 92.7373 219.247 92.6385L216.087 91.6163C215.15 91.3134 215.169 89.9821 216.113 89.7052L219.14 88.818C219.467 88.7222 219.722 88.4666 219.818 88.1397L220.705 85.1133Z" fill="white" fill-opacity="0.05"/>
<circle cx="73.51" cy="14" r="2" fill="white" fill-opacity="0.05"/>
<circle opacity="0.2" cx="116" cy="14" r="2" fill="white" fill-opacity="0.05"/>
<circle opacity="0.3" cx="32" cy="97" r="2" fill="white" fill-opacity="0.05"/>
<circle opacity="0.2" cx="83" cy="111" r="2" fill="white" fill-opacity="0.05"/>
<circle opacity="0.2" cx="222" cy="131" r="2" fill="white" fill-opacity="0.05"/>
<circle cx="72" cy="143" r="2" fill="white" fill-opacity="0.05"/>
<circle opacity="0.3" cx="150" cy="137" r="2" fill="white" fill-opacity="0.05"/>
<circle opacity="0.3" cx="266" cy="137" r="2" fill="white" fill-opacity="0.05"/>
<circle opacity="0.25" cx="307" cy="105" r="2" fill="white" fill-opacity="0.05"/>
<circle opacity="0.3" cx="253" cy="75" r="2" fill="white" fill-opacity="0.05"/>
<circle opacity="0.3" cx="216" cy="9" r="2" fill="white" fill-opacity="0.05"/>
<g clip-path="url(#clip0)">
<path d="M250.508 64.1591L248.571 72.3636L220 50.7727L250.508 64.1591Z" fill="#D1D1D1"/>
<path d="M248.571 72.3636L246.634 66.3181L242.76 68.4772L248.571 72.3636Z" fill="#B0B0B0"/>
<path d="M235.496 74.5227L220 50.7727L262.614 59.8409L250.508 64.1591L220 50.7727L246.634 66.3182L235.496 74.5227Z" fill="white"/>
<path d="M251.961 72.1387C256.642 79.6236 271.524 87.8569 293.606 60.9115C321.209 27.2296 335.736 54.0024 342.516 53.1387" stroke="#D1D1D1" stroke-width="2" stroke-dasharray="7 7"/>
</g>
<defs>
<clipPath id="clip0">
<rect width="123" height="38" fill="white" transform="translate(220 43)"/>
</clipPath>
</defs>
</svg>
